<?xml version="1.0" encoding="UTF-8" standalone="no"?>
<!-- Created with Inkscape (http://www.inkscape.org/) -->

<svg
   version="1.1"
   id="svg2"
   width="1602.038"
   height="1082.7477"
   viewBox="0 0 1602.038 1082.7477"
   sodipodi:docname="logo.svg"
   inkscape:version="1.2.2 (732a01da63, 2022-12-09)"
   xmlns:inkscape="http://www.inkscape.org/namespaces/inkscape"
   xmlns:sodipodi="http://sodipodi.sourceforge.net/DTD/sodipodi-0.dtd"
   xmlns="http://www.w3.org/2000/svg"
   xmlns:svg="http://www.w3.org/2000/svg">
  <defs
     id="defs6" />
  <sodipodi:namedview
     id="namedview4"
     pagecolor="#ffffff"
     bordercolor="#000000"
     borderopacity="0.25"
     inkscape:showpageshadow="2"
     inkscape:pageopacity="0.0"
     inkscape:pagecheckerboard="0"
     inkscape:deskcolor="#d1d1d1"
     showgrid="false"
     showguides="true"
     inkscape:zoom="0.24312781"
     inkscape:cx="2525.4206"
     inkscape:cy="294.084"
     inkscape:window-width="1920"
     inkscape:window-height="991"
     inkscape:window-x="-9"
     inkscape:window-y="-9"
     inkscape:window-maximized="1"
     inkscape:current-layer="g10999">
    <inkscape:page
       x="0"
       y="0"
       id="page8"
       width="1602.038"
       height="1082.7477" />
  </sodipodi:namedview>
  <g
     id="g10"
     inkscape:groupmode="layer"
     inkscape:label="Page 1"
     transform="matrix(1.3333333,0,0,-1.3333333,-17.464933,3863.9728)">
    <g
       id="g10817"
       transform="translate(-2364.5087)">
      <g
         id="g10876"
         transform="translate(-2480.177,-709.50337)">
        <g
           id="g10999">
          <g
             id="g11057"
             transform="translate(3726.435,-1764.5045)">
            <path
               style="fill:#ffffff;fill-opacity:1;stroke:none;stroke-width:4.2645;stroke-linecap:square;stroke-linejoin:miter;stroke-dasharray:none;stroke-opacity:1;paint-order:stroke fill markers"
               d="m 1132.1206,4975.1779 -0.7712,-293.0557 c 407.4761,-157.5291 806.901,-148.2831 1199.9861,-7.7121 l 1.5425,294.5983 c -401.2877,119.0406 -801.5262,119.5146 -1200.7574,6.1695 z"
               id="path9103"
               sodipodi:nodetypes="ccccc" />
            <path
               style="fill:none;fill-opacity:1;stroke:#000000;stroke-width:4.2645;stroke-linecap:butt;stroke-linejoin:bevel;stroke-dasharray:none;stroke-opacity:1"
               d="m 2239.9677,4747.0053 c 30.2245,6.2712 30.1294,-31.4923 -0.2726,-25.7665 z"
               id="path1527-2"
               sodipodi:nodetypes="ccc" />
            <path
               style="fill:#000000;fill-opacity:1;stroke:none;stroke-width:2.3145;stroke-linecap:square;stroke-linejoin:miter;stroke-opacity:1;paint-order:stroke fill markers"
               d="m 2285.3046,4718.2955 5.5431,-0.096 2.651,6.9407 10.6039,0.097 2.7474,-6.9409 h 6.507 l -12.532,31.089 -4.5308,-0.048 z"
               id="path1645-5-5"
               sodipodi:nodetypes="ccccccccc" />
            <path
               style="fill:#ffffff;fill-opacity:1;stroke:none;stroke-width:2.3145;stroke-linecap:square;stroke-linejoin:miter;stroke-opacity:1;paint-order:stroke fill markers"
               d="m 2295.8423,4731.1669 h 7.1337 l -3.2776,9.592 z"
               id="path1647-2-8-5" />
            <path
               style="fill:#000000;fill-opacity:1;stroke:none;stroke-width:2.3145;stroke-linecap:square;stroke-linejoin:miter;stroke-opacity:1;paint-order:stroke fill markers"
               d="m 2184.6631,4719.0668 5.5431,-0.096 2.651,6.9407 10.6039,0.097 2.7474,-6.9409 h 6.507 l -12.532,31.089 -4.5308,-0.048 z"
               id="path1645-5-1"
               sodipodi:nodetypes="ccccccccc" />
            <path
               style="fill:#ffffff;fill-opacity:1;stroke:none;stroke-width:2.3145;stroke-linecap:square;stroke-linejoin:miter;stroke-opacity:1;paint-order:stroke fill markers"
               d="m 2194.7368,4731.6957 h 7.1337 l -3.2776,9.592 z"
               id="path1647-2-8" />
            <path
               style="fill:#000000;fill-opacity:1;stroke:#000000;stroke-width:0.743813;stroke-linecap:butt;stroke-linejoin:bevel;stroke-opacity:1"
               d="m 2105.7979,4749.0718 c 0.3281,3.2218 5.1232,3.241 5.3203,0 l 0.05,-28.7565 c -0.8687,-3.0201 -4.4837,-4.0654 -5.4186,-0.08 z"
               id="path1288-9-2-9"
               sodipodi:nodetypes="ccccc" />
            <path
               style="fill:#000000;fill-opacity:1;stroke:none;stroke-width:2.3145;stroke-linecap:butt;stroke-linejoin:bevel;stroke-opacity:1"
               d="m 2058.5109,4751.0129 -0.068,-31.3559 h 21.3697 v 6.3393 h -16.5641 v 25.0166 z"
               id="path1591-4" />
            <path
               style="fill:#000000;fill-opacity:1;stroke:#000000;stroke-width:0.743813;stroke-linecap:butt;stroke-linejoin:bevel;stroke-opacity:1"
               d="m 1975.4338,4750.981 c 0.3281,3.2219 5.1232,3.241 5.3203,0 l 0.05,-28.7564 c -0.8687,-3.0202 -4.4837,-4.0655 -5.4186,-0.08 z"
               id="path1288-9-2"
               sodipodi:nodetypes="ccccc" />
            <path
               style="fill:#000000;fill-opacity:1;stroke:none;stroke-width:2.3145;stroke-linecap:square;stroke-linejoin:miter;stroke-opacity:1;paint-order:stroke fill markers"
               d="m 1829.3588,4722.0903 6.1348,0.068 v 11.7925 l 9.3386,0.3409 c 13.2777,-0.8442 11.2332,19.9575 0.6818,19.018 h -16.1551 z"
               id="path1711"
               sodipodi:nodetypes="ccccccc" />
            <path
               style="fill:#ffffff;fill-opacity:1;stroke:none;stroke-width:1.02037;stroke-linecap:butt;stroke-linejoin:bevel;stroke-opacity:1"
               d="m 1835.218,4749.0403 c 17.8695,2.4772 16.8627,-12.1612 -0.1511,-9.0578 z"
               id="path1527-5"
               sodipodi:nodetypes="ccc" />
            <path
               style="fill:#000000;fill-opacity:1;stroke:#000000;stroke-width:0.743813;stroke-linecap:butt;stroke-linejoin:bevel;stroke-opacity:1"
               d="m 1617.7428,4752.5396 c 0.3281,3.2219 5.1232,3.241 5.3203,0 l 0.05,-28.7564 c -0.8687,-3.0202 -4.4837,-4.0655 -5.4186,-0.08 z"
               id="path1288-9"
               sodipodi:nodetypes="ccccc" />
            <ellipse
               style="fill:none;fill-opacity:1;stroke:#000000;stroke-width:5.00625;stroke-linecap:butt;stroke-linejoin:bevel;stroke-dasharray:none;stroke-opacity:1"
               id="path1525-6-8-1"
               cx="1523.2979"
               cy="-4740.0176"
               transform="scale(1,-1)"
               rx="13.175853"
               ry="15.010466" />
            <ellipse
               style="fill:none;fill-opacity:1;stroke:#000000;stroke-width:5.00625;stroke-linecap:butt;stroke-linejoin:bevel;stroke-dasharray:none;stroke-opacity:1"
               id="path1525-6-8"
               cx="1425.1401"
               cy="-4739.8813"
               transform="scale(1,-1)"
               rx="13.175853"
               ry="15.010466" />
            <ellipse
               style="fill:none;fill-opacity:1;stroke:#000000;stroke-width:5.00625;stroke-linecap:butt;stroke-linejoin:bevel;stroke-dasharray:none;stroke-opacity:1"
               id="path1525-6"
               cx="1273.4048"
               cy="-4740.9722"
               transform="scale(1,-1)"
               rx="13.175853"
               ry="15.010466" />
            <path
               style="fill:#000000;fill-opacity:1;stroke:#000000;stroke-width:2.3145;stroke-linecap:butt;stroke-linejoin:bevel;stroke-opacity:1"
               d="m 2310.9924,4862.0313 c -12.1112,67.1355 -81.0983,36.6668 -78.1171,-0.6818 3.3194,-21.7291 13.4421,-36.3984 35.9911,-38.1724 12.8509,0.7346 21.3679,4.9003 25.4937,12.5423 2.2672,-12.3822 13.3821,-18.9353 15.8143,0.5454 z"
               id="path1344-0"
               sodipodi:nodetypes="cccccc" />
            <ellipse
               style="fill:#ffffff;fill-opacity:1;stroke:#000000;stroke-width:3.21153;stroke-linecap:butt;stroke-linejoin:bevel;stroke-opacity:1"
               id="path1342-9"
               cx="2270.8918"
               cy="-4862.0952"
               transform="scale(1,-1)"
               rx="24.430998"
               ry="25.907825" />
            <path
               style="fill:#000000;fill-opacity:1;stroke:#000000;stroke-width:2.3145;stroke-linecap:butt;stroke-linejoin:bevel;stroke-opacity:1"
               d="m 2172.2061,4886.5738 c -50.3955,9.2775 -40.6534,-62.4322 -1.1568,-48.7784 27.1378,17.1641 22.6133,-7.1481 7.5192,-12.1463 -16.2206,-2.4312 -27.0586,-7.4355 -46.8503,10.7968 -9.3261,16.5296 -12.488,33.3459 0.1928,50.8991 12.4067,13.7976 28.7898,17.3033 49.9352,8.4832 13.9569,-7.8666 10.0233,-25.7088 -9.6401,-9.2544 z"
               id="path1405-3"
               sodipodi:nodetypes="ccccccc" />
            <path
               style="fill:#000000;fill-opacity:1;stroke:#000000;stroke-width:1.78418;stroke-linecap:butt;stroke-linejoin:bevel;stroke-opacity:1"
               d="m 2064.9814,4896.8771 -0.9766,-62.2504 c -1.3466,-11.5819 14.2026,-13.1399 13.1832,-0.1811 l 0.4883,62.4315 c -0.5698,7.5747 -11.637,8.3014 -12.6949,0 z"
               id="path1407-9"
               sodipodi:nodetypes="ccccc" />
            <path
               style="fill:#000000;fill-opacity:1;stroke:#000000;stroke-width:2.3145;stroke-linecap:butt;stroke-linejoin:bevel;stroke-opacity:1"
               d="m 1957.6453,4860.883 c -5.3583,38.5335 44.8871,41.322 41.4443,-0.5453 l 0.2727,-24.6758 c -0.06,-11.6556 12.477,-15.7205 13.7694,0 l -0.2727,35.9912 c -8.1484,43.0967 -63.2048,40.0972 -69.5283,-0.409 l 0.1362,-36.1275 c -1.0867,-12.7763 12.8111,-13.1719 13.9057,0.2726 z"
               id="path1346-0"
               sodipodi:nodetypes="ccccccccc" />
            <path
               style="fill:none;stroke:none;stroke-width:2.3145;stroke-linejoin:round;stroke-opacity:1"
               d="m 1135.166,4974.2328 -3.2718,-292.2917 c 340.0246,-136.0051 937.4773,-115.4948 1197.5233,-6.5438 l 3.2718,291.201 c -356.7085,117.5378 -812.8347,137.7646 -1197.5233,7.6345 z"
               id="path517"
               sodipodi:nodetypes="ccccc" />
            <path
               style="fill:#000000;fill-opacity:1;stroke:#000000;stroke-width:2.3145;stroke-linecap:butt;stroke-linejoin:bevel;stroke-opacity:1"
               d="m 1156.0246,4940.8319 c 0.9083,11.2737 14.1776,11.3402 14.7236,0 l 0.1363,-100.6117 c -2.4046,-10.5679 -12.4085,-14.2249 -14.9963,-0.2727 z"
               id="path1288"
               sodipodi:nodetypes="ccccc" />
            <path
               style="fill:#000000;fill-opacity:1;stroke:#000000;stroke-width:2.3145;stroke-linecap:butt;stroke-linejoin:bevel;stroke-opacity:1"
               d="m 1295.4902,4869.5313 c -12.1112,67.1355 -81.0983,36.6668 -78.1171,-0.6818 3.3194,-21.7291 13.4421,-36.3984 35.9911,-38.1724 12.8509,0.7346 21.3679,4.9003 25.4937,12.5423 2.2672,-12.3822 13.3821,-18.9353 15.8143,0.5454 z"
               id="path1344"
               sodipodi:nodetypes="cccccc" />
            <ellipse
               style="fill:#ffffff;fill-opacity:1;stroke:#000000;stroke-width:3.21153;stroke-linecap:butt;stroke-linejoin:bevel;stroke-opacity:1"
               id="path1342"
               cx="1256.5674"
               cy="-4869.4868"
               transform="scale(1,-1)"
               rx="24.430998"
               ry="25.907825" />
            <path
               style="fill:#000000;fill-opacity:1;stroke:#000000;stroke-width:2.3145;stroke-linecap:butt;stroke-linejoin:bevel;stroke-opacity:1"
               d="m 1357.5204,4865.5777 c -5.3583,38.5336 44.8871,41.322 41.4443,-0.5453 l 0.2727,-24.6758 c -0.06,-11.6556 12.477,-15.7205 13.7694,0 l -0.2727,35.9912 c -8.1484,43.0967 -63.2048,40.0972 -69.5283,-0.409 l 0.1362,-36.1275 c -1.0867,-12.7763 12.8111,-13.1719 13.9057,0.2726 z"
               id="path1346"
               sodipodi:nodetypes="ccccccccc" />
            <path
               style="fill:#000000;fill-opacity:1;stroke:#000000;stroke-width:2.3145;stroke-linecap:butt;stroke-linejoin:bevel;stroke-opacity:1"
               d="m 1497.8618,4831.9276 c -54.1125,1.9653 -48.605,76.5255 -0.1927,75.1919 8.0082,-1.6429 16.6578,-4.383 23.1359,-12.1464 2.7811,16.2786 14.2858,16.5552 15.8097,0.1928 l -1.7353,-73.0711 c -14.8924,-36.6048 -49.2062,-23.5602 -64.7807,-18.316 -11.9497,4.5028 -10.0548,12.2409 0,13.496 30.029,-14.5136 46.9622,-9.9074 51.2847,13.1104 l -1.5424,13.6888 c -4.1292,-7.7379 -11.1689,-12.1175 -21.9792,-12.1464 z"
               id="path1399"
               sodipodi:nodetypes="cccccccccc" />
            <ellipse
               style="fill:#ffffff;fill-opacity:1;stroke:#000000;stroke-width:2.80731;stroke-linecap:butt;stroke-linejoin:bevel;stroke-opacity:1"
               id="path1397"
               cx="1497.137"
               cy="-4869.2319"
               transform="scale(1,-1)"
               rx="24.671299"
               ry="25.489777" />
            <path
               style="fill:#000000;fill-opacity:1;stroke:#000000;stroke-width:2.3145;stroke-linecap:butt;stroke-linejoin:bevel;stroke-opacity:1"
               d="m 1598.1178,4861.8116 56.1047,0.3856 c 1.6371,37.2831 -20.3886,43.3936 -32.3903,43.5727 -21.7015,-0.051 -41.4691,-16.4043 -38.9456,-39.524 -2.7556,-18.6944 24.209,-57.081 66.9015,-27.1848 9.4573,8.4265 -3.4817,14.323 -7.3263,9.6401 -11.2289,-8.6767 -22.2875,-17.9046 -42.0304,0.964 -2.9077,5.4732 -2.3599,8.6426 -2.3136,12.1464 z"
               id="path1401"
               sodipodi:nodetypes="cccccccc" />
            <path
               style="fill:#ffffff;fill-opacity:1;stroke:#000000;stroke-width:2.3145;stroke-linecap:butt;stroke-linejoin:bevel;stroke-opacity:1"
               d="m 1598.6962,4873.3795 c -0.9898,27.4454 43.34,27.2714 43.3799,1e-4 z"
               id="path1403"
               sodipodi:nodetypes="ccc" />
            <path
               style="fill:#000000;fill-opacity:1;stroke:#000000;stroke-width:2.3145;stroke-linecap:butt;stroke-linejoin:bevel;stroke-opacity:1"
               d="m 1747.152,4890.1532 c -50.3955,9.2775 -40.6534,-62.4323 -1.1568,-48.7784 27.1378,17.164 22.6133,-7.1482 7.5192,-12.1464 -16.2206,-2.4312 -27.0586,-7.4354 -46.8503,10.7968 -9.3261,16.5296 -12.488,33.346 0.1928,50.8991 12.4067,13.7976 28.7898,17.3033 49.9352,8.4832 13.9569,-7.8666 10.0233,-25.7088 -9.6401,-9.2543 z"
               id="path1405"
               sodipodi:nodetypes="ccccccc" />
            <path
               style="fill:#000000;fill-opacity:1;stroke:#000000;stroke-width:0.98781;stroke-linecap:butt;stroke-linejoin:bevel;stroke-opacity:1"
               d="m 1941.6289,4747.8557 c -21.5084,3.9596 -17.3506,-26.6454 -0.4938,-20.8181 11.5822,7.3255 9.6512,-3.0508 3.2092,-5.1839 -6.9228,-1.0376 -11.5484,-3.1734 -19.9954,4.608 -3.9803,7.0546 -5.3297,14.2317 0.082,21.7232 5.2951,5.8888 12.2873,7.3849 21.312,3.6205 5.9567,-3.3573 4.2778,-10.9723 -4.1143,-3.9497 z"
               id="path1405-5"
               sodipodi:nodetypes="ccccccc" />
            <path
               style="fill:#000000;fill-opacity:1;stroke:#000000;stroke-width:2.3145;stroke-linecap:butt;stroke-linejoin:bevel;stroke-opacity:1"
               d="m 1813.5445,4935.2423 -1.0906,-93.7951 c -1.5041,-17.4511 15.8621,-19.7982 14.7236,-0.2727 l 0.5453,94.0678 c -0.6362,11.4132 -12.9968,12.5082 -14.1783,0 z"
               id="path1407"
               sodipodi:nodetypes="ccccc" />
            <path
               style="fill:#000000;fill-opacity:1;stroke:#000000;stroke-width:2.3145;stroke-linecap:butt;stroke-linejoin:bevel;stroke-opacity:1"
               d="m 1878.7103,4893.798 c 0.1802,12.2551 12.003,13.5612 14.7236,0.2727 l -0.5453,-59.4399 c -2.841,-11.7034 -11.9742,-10.8193 -14.451,0 z"
               id="path1409"
               sodipodi:nodetypes="ccccc" />
            <path
               style="fill:#000000;fill-opacity:1;stroke:#000000;stroke-width:2.3145;stroke-linecap:butt;stroke-linejoin:bevel;stroke-opacity:1"
               d="m 1891.5253,4919.9733 c -8.816,-8.0889 -14.9963,-2.7266 -8.7251,7.0892 l 7.3617,11.4517 c 2.6903,9.4702 16.2884,3.2862 9.5432,-7.0892 z"
               id="path1411"
               sodipodi:nodetypes="ccccc" />
            <ellipse
               style="fill:#000000;fill-opacity:1;stroke:#000000;stroke-width:2.60588;stroke-linecap:butt;stroke-linejoin:bevel;stroke-opacity:1"
               id="path1457"
               cx="2071.77"
               cy="-4923.7905"
               transform="scale(1,-1)"
               rx="8.5956211"
               ry="9.6700735" />
            <ellipse
               style="fill:none;fill-opacity:1;stroke:#000000;stroke-width:5.00625;stroke-linecap:butt;stroke-linejoin:bevel;stroke-dasharray:none;stroke-opacity:1"
               id="path1525"
               cx="1166.5959"
               cy="-4741.9268"
               transform="scale(1,-1)"
               rx="13.175853"
               ry="15.010466" />
            <path
               style="fill:none;fill-opacity:1;stroke:#000000;stroke-width:4.2645;stroke-linecap:butt;stroke-linejoin:bevel;stroke-dasharray:none;stroke-opacity:1"
               d="m 1210.0112,4754.7413 c 30.2245,6.2712 30.1294,-31.4923 -0.2726,-25.7664 z"
               id="path1527"
               sodipodi:nodetypes="ccc" />
            <path
               style="fill:#000000;fill-opacity:1;stroke:none;stroke-width:2.3145;stroke-linecap:butt;stroke-linejoin:bevel;stroke-opacity:1"
               d="m 1313.4858,4726.521 v 29.8563 l 4.6352,0.1363 15.1326,-19.9042 0.5454,20.0406 5.7258,0.4089 0.1364,-31.3558 -5.7259,0.1363 -15.269,19.7679 0.409,-19.359 z"
               id="path1553" />
            <path
               style="fill:#000000;fill-opacity:1;stroke:none;stroke-width:2.3145;stroke-linecap:butt;stroke-linejoin:bevel;stroke-opacity:1"
               d="m 1373.6073,4724.8849 -0.2726,26.1754 -9.2705,0.1365 -0.2726,5.5895 25.9027,0.2726 0.1363,-5.8621 -11.4517,-0.2727 0.5453,-25.9027 z"
               id="path1555"
               sodipodi:nodetypes="ccccccccc" />
            <path
               style="fill:#000000;fill-opacity:1;stroke:none;stroke-width:2.3145;stroke-linecap:butt;stroke-linejoin:bevel;stroke-opacity:1"
               d="m 1466.2436,4755.1163 -0.068,-31.3559 h 21.3697 v 6.3393 h -16.5641 v 25.0166 z"
               id="path1591" />
            <path
               style="fill:#000000;fill-opacity:1;stroke:none;stroke-width:2.3145;stroke-linecap:butt;stroke-linejoin:bevel;stroke-opacity:1"
               d="m 1588.3954,4746.0161 v 6.1349 c -12.0545,3.3257 -23.487,5.3759 -25.0166,-12.8832 -0.3309,-9.76 4.7645,-16.7284 13.7694,-16.2914 5.6607,-0.034 9.3866,2.2967 13.4966,4.158 v 13.3604 l -13.3604,-0.068 -0.068,-5.8622 h 8.657 l -0.068,-4.0899 c -2.7988,-0.8886 -5.5502,-2.0144 -8.5207,-2.0449 -4.6505,0.6194 -8.7936,2.2943 -9.1341,9.7476 -0.4396,2.2808 0.9447,10.3241 9.1341,11.179 3.9294,0.3547 7.5395,-1.3667 11.1107,-3.3403 z"
               id="path1617"
               sodipodi:nodetypes="cccccccccccccc" />
            <path
               style="fill:#000000;fill-opacity:1;stroke:none;stroke-width:2.3145;stroke-linecap:square;stroke-linejoin:miter;stroke-opacity:1;paint-order:stroke fill markers"
               d="m 1648.4385,4723.1402 5.5431,-0.096 2.651,6.9407 10.6039,0.097 2.7474,-6.9408 h 6.507 l -12.532,31.089 -4.5308,-0.048 z"
               id="path1645"
               sodipodi:nodetypes="ccccccccc" />
            <path
               style="fill:#ffffff;fill-opacity:1;stroke:none;stroke-width:2.3145;stroke-linecap:square;stroke-linejoin:miter;stroke-opacity:1;paint-order:stroke fill markers"
               d="m 1658.4159,4736.1542 h 7.1337 l -3.2776,9.592 z"
               id="path1647" />
            <path
               style="fill:#000000;fill-opacity:1;stroke:none;stroke-width:2.3145;stroke-linecap:square;stroke-linejoin:miter;stroke-opacity:1;paint-order:stroke fill markers"
               d="m 1756.2858,4722.1583 -21.8809,-0.068 0.068,32.0375 21.881,-0.068 -0.068,-5.9304 -15.8824,-0.1363 0.068,-5.7941 h 10.0203 l -0.068,-7.2255 -9.9521,-0.068 -0.068,-6.7484 h 15.9506 z"
               id="path1707" />
            <path
               style="fill:#000000;fill-opacity:1;stroke:none;stroke-width:2.3145;stroke-linecap:square;stroke-linejoin:miter;stroke-opacity:1;paint-order:stroke fill markers"
               d="m 1899.9775,4721.6129 -21.8809,-0.068 0.068,32.0375 21.881,-0.068 -0.068,-5.9304 -15.8824,-0.1363 0.068,-5.7941 h 10.0203 l -0.068,-7.2255 -9.9521,-0.068 -0.068,-6.7484 h 15.9506 z"
               id="path1707-3" />
            <path
               style="fill:#000000;fill-opacity:1;stroke:none;stroke-width:2.3145;stroke-linecap:square;stroke-linejoin:miter;stroke-opacity:1;paint-order:stroke fill markers"
               d="m 1781.2343,4730.2019 c 0.1724,-4.2104 0.9388,-8.4548 10.8382,-8.725 8.3246,-0.5911 12.934,3.1431 13.633,8.725 -0.591,7.4989 -7.1041,9.7044 -12.0652,10.1565 -4.5297,0.028 -10.4492,6.6348 0,7.839 1.2804,0.061 2.7671,-0.5456 4.7715,-2.113 l 4.2263,-3e-4 c 0.01,3.9944 -1.3201,8.483 -9.475,8.1116 -5.761,-0.6442 -12.0364,-0.6805 -11.997,-8.1797 -0.5285,-5.7392 2.0757,-9.9723 10.9745,-11.1791 5.7516,0.1415 8.5629,-6.5595 -0.068,-6.6801 -2.4892,-0.2114 -6.8578,-0.8255 -6.9833,1.634 -0.038,0.7465 -2.5582,0.4331 -3.855,0.4111 z"
               id="path1709"
               sodipodi:nodetypes="cccccccccccsc" />
            <path
               style="fill:#000000;fill-opacity:1;stroke:none;stroke-width:2.3145;stroke-linecap:square;stroke-linejoin:miter;stroke-opacity:1;paint-order:stroke fill markers"
               d="m 2006.1946,4719.8856 5.5431,-0.096 2.651,6.9407 10.6039,0.097 2.7474,-6.9409 h 6.507 l -12.532,31.089 -4.5308,-0.048 z"
               id="path1645-5"
               sodipodi:nodetypes="ccccccccc" />
            <path
               style="fill:#ffffff;fill-opacity:1;stroke:none;stroke-width:2.3145;stroke-linecap:square;stroke-linejoin:miter;stroke-opacity:1;paint-order:stroke fill markers"
               d="m 2016.2325,4733.418 h 7.1337 l -3.2776,9.5919 z"
               id="path1647-2" />
            <path
               style="fill:#000000;fill-opacity:1;stroke:none;stroke-width:2.3145;stroke-linecap:square;stroke-linejoin:miter;stroke-opacity:1;paint-order:stroke fill markers"
               d="m 2137.3965,4719.1591 h 24.1305 l -0.1364,5.9304 h -16.7004 l 16.7686,20.0405 v 6.1349 l -24.0623,-0.068 v -6.7483 l 14.0421,-0.2046 -14.1102,-18.8135 z"
               id="path2030" />
            <path
               style="fill:#e5bd9a;fill-opacity:1;stroke:none;stroke-width:4.43878;stroke-linecap:square;stroke-linejoin:miter;stroke-dasharray:none;stroke-opacity:1;paint-order:stroke fill markers"
               d="m 1193.894,4658.2149 c 382.5293,-133.8817 739.4616,-126.0153 1076.2522,-6.6097 -404.7953,-106.3298 -754.4342,-82.649 -1076.2522,6.6097 z"
               id="path2032"
               sodipodi:nodetypes="ccc" />
            <path
               style="fill:#e5bd9a;fill-opacity:1;stroke:none;stroke-width:4.2645;stroke-linecap:square;stroke-linejoin:miter;stroke-dasharray:none;stroke-opacity:1;paint-order:stroke fill markers"
               d="m 1131.3494,4975.9491 c 125.9626,55.9523 251.9251,76.6729 377.8877,96.3999 13.0003,215.7136 389.3733,320.2645 455.0075,-4.6272 135.8646,-18.3753 255.6213,-52.8584 364.7773,-97.9422 -414.633,125.327 -811.8003,110.9284 -1197.6725,6.1695 z"
               id="path6920"
               sodipodi:nodetypes="ccccc" />
            <rect
               style="fill:#ffffff;fill-opacity:1;stroke:none;stroke-width:3.85448;stroke-linecap:square;stroke-linejoin:miter;stroke-dasharray:none;stroke-opacity:1;paint-order:stroke fill markers"
               id="rect9101"
               width="190.12967"
               height="216.88733"
               x="1642.2213"
               y="-5350.4688"
               transform="scale(1,-1)" />
            <rect
               style="fill:#ffffff;fill-opacity:1;stroke:none;stroke-width:6.73762;stroke-linecap:square;stroke-linejoin:miter;stroke-dasharray:none;stroke-opacity:1;paint-order:stroke fill markers"
               id="rect10408"
               width="150.23573"
               height="72.527596"
               x="1677.2358"
               y="-5146.4365"
               transform="scale(1,-1)" />
            <rect
               style="fill:#ffffff;fill-opacity:1;stroke:none;stroke-width:4.41687;stroke-linecap:square;stroke-linejoin:miter;stroke-dasharray:none;stroke-opacity:1;paint-order:stroke fill markers"
               id="rect10406"
               width="59.439911"
               height="68.443367"
               x="1642.3353"
               y="-5142.3472"
               transform="scale(1,-1)" />
            <path
               style="fill:#cbc0aa;fill-opacity:1;stroke:none;stroke-width:4.30158;stroke-linecap:square;stroke-linejoin:miter;stroke-dasharray:none;stroke-opacity:1;paint-order:stroke fill markers"
               d="m 1630.3106,5074.1969 c 0.1131,42.8982 0.8103,90.5512 0,125.9336 -10.6006,40.2351 -11.6596,74.3029 -15.4248,103.1793 3.9403,67.2798 35.3315,73.6263 72.8817,66.3014 l 26.222,-10.9849 c 16.4049,6.0269 33.2632,4.103 42.0324,0 l 23.5225,8.631 c 79.753,14.4677 66.0415,-11.6349 75.9667,-68.2629 2.0925,-41.1011 -9.0925,-72.3778 -17.7384,-105.5332 l 0.3856,-119.6565 -23.5226,-0.3924 -3.4706,140.0571 c 20.4313,38.3458 21.199,75.1529 15.0391,111.4177 -4.3326,8.4448 -1.9519,20.9876 -20.4378,20.7929 -16.2847,-0.7414 -21.6143,-6.1982 -11.1829,-18.4389 9.7977,-17.4095 0.074,-39.8464 -20.4377,-16.4773 -21.9022,26.253 -44.7936,44.2041 -74.8098,2.3538 -9.2154,-17.574 -30.7424,-15.4749 -22.7514,11.3773 11.9905,15.172 3.0103,18.5622 -4.2417,19.2234 -27.7645,4.2664 -21.3418,-10.3068 -26.6077,-18.4387 -5.3539,-43.6504 3.0161,-62.3821 11.5685,-109.0641 -0.3856,-48.9982 -0.7711,-95.3699 -1.1568,-142.4109 z"
               id="path7214"
               sodipodi:nodetypes="ccccccccccccccccccccccc" />
            <path
               style="fill:#cbc0aa;fill-opacity:1;stroke:none;stroke-width:4.48914;stroke-linecap:square;stroke-linejoin:miter;stroke-dasharray:none;stroke-opacity:1;paint-order:stroke fill markers"
               d="m 1681.0437,5073.6808 c 25.3578,141.8789 99.6494,74.1416 106.5743,-0.2766 h -27.3662 c -3.9003,65.6569 -42.9971,81.0377 -50.5891,0.2766 -8.7448,0.7651 -19.9777,-1.9167 -28.619,0 z"
               id="path8443"
               sodipodi:nodetypes="ccccc" />
          </g>
        </g>
      </g>
    </g>
  </g>
</svg>
